<?xml version="1.0" encoding="UTF-8"?>
<svg xmlns="http://www.w3.org/2000/svg" viewBox="0 0 789.44 886.23" width="100%" height="100%" preserveAspectRatio="xMidYMid meet">
  <path fill="#3a4a75" d="M690.54.21l-.03-.21h.03l-85.82,487.06c-7.32,41.51-21.97,80.6-43.94,116.92-21.97,36.32-49.04,68.24-81.18,95.56-32.16,27.34-67.76,48.82-106.82,64.39-39.07,15.57-79.36,23.37-120.87,23.37s-79.06-8.41-112.63-23.98c-27.4-12.7-51.11-27.62-71.14-50.48h-.65l82.9,85.69v-.24c0,.08,1.86.16,1.92.24,22.5,27.34,51.42,48.78,84.99,64.34,33.58,15.57,71.56,23.35,113.07,23.35s82.02-7.78,121.09-23.35c39.07-15.57,74.77-37,106.93-64.34,32.14-27.32,59.26-59.15,81.23-95.48,21.97-36.32,36.64-75.24,43.96-116.75l53.21-301.66,32.64-185.23L690.54.21Z"/>
  <path fill="#4b5e91" d="M247.41,0l-85.68,486.27c-3.53,20.03-3.03,38.84,1.55,56.11,4.56,17.27,12.11,32.37,22.67,45.15,10.54,12.78,23.79,23.02,39.75,30.61,10.39,4.95,21.66,8.28,33.8,10.01-1.9-13.45-2.83-27.65-.19-42.65l84.37-485.91h0S246.09.21,246.09.21L247.33,0h.08Z"/>
  <path fill="#5d75b6" d="M604.72,487.4c-7.32,41.51-21.97,80.43-43.94,116.75-21.97,36.32-49.04,68.15-81.18,95.48-32.16,27.34-67.76,48.78-106.82,64.34-39.07,15.57-79.36,23.35-120.87,23.35s-79.06-7.78-112.63-23.35c-33.58-15.57-61.63-37-84.13-64.34-22.52-27.32-38.35-59.15-47.51-95.48-9.16-36.32-10.08-75.24-2.77-116.75L90.7.68h156.71l-85.68,485.93c-3.53,20.02-3.03,38.67,1.55,55.94,4.56,17.27,12.11,32.29,22.67,45.07,10.54,12.78,23.79,22.98,39.75,30.57,15.94,7.61,33.95,11.4,54.03,11.4s38.55-3.79,57.53-11.4c18.98-7.59,35.99-17.79,51.05-30.57,15.05-12.78,27.89-27.8,38.56-45.07,10.65-17.27,17.75-35.92,21.28-55.94L533.84.68h156.71l-85.82,486.72Z"/>
</svg>
